Coordinates
version=1
nRows=32
nColumns=12
inDegrees=yes

Units are S.I. units (second, meters, Newtons, ...)
Angles are in degrees

endheader
time	SC_y	SC_z	SC_x	AC_y	AC_z	AC_x	GH_y	GH_z	GH_yy	EL_x	PS_y
       0.0              -22.22           16.5          72.52          45.96         -4.351          12.59          112.2          24.79          139.1          20.08          98.65
   0.04672              -22.22          16.49          72.52          45.96         -4.352          12.59          112.2          24.79          139.1          20.09          98.65
   0.09344              -22.22          16.49          72.52          45.96         -4.354          12.59          112.1           24.8          139.1          20.11          98.64
    0.1402              -22.22          16.49          72.52          45.96         -4.356          12.58          112.1           24.8          139.1          20.13          98.64
    0.1869              -22.22          16.48          72.52          45.95         -4.358          12.58          112.1          24.81          139.1          20.15          98.63
    0.2336              -22.22          16.48          72.52          45.95          -4.36          12.58          112.0          24.81          139.1          20.17          98.62
    0.2803              -22.22          16.48          72.52          45.95         -4.362          12.58          112.0          24.82          139.1          20.19          98.62
     0.327              -22.22          16.47          72.51          45.94         -4.364          12.58          111.9          24.83          139.1          20.21          98.61
    0.3737              -22.22          16.47          72.51          45.94         -4.366          12.57          111.9          24.83          139.1          20.23           98.6
    0.4205              -22.22          16.46          72.51          45.94         -4.369          12.57          111.9          24.84          139.0          20.26          98.59
    0.4672              -22.22          16.46          72.51          45.93         -4.372          12.57          111.8          24.85          139.0          20.29          98.58
    0.5139              -22.22          16.45          72.51          45.93         -4.375          12.56          111.7          24.86          139.0          20.32          98.57
    0.5606              -22.22          16.44           72.5          45.92         -4.378          12.56          111.7          24.87          139.0          20.35          98.56
    0.6073              -22.22          16.44           72.5          45.92         -4.382          12.56          111.6          24.88          139.0          20.39          98.55
    0.6541              -22.22          16.43           72.5          45.91         -4.385          12.55          111.6          24.89          139.0          20.42          98.54
    0.7008              -22.22          16.42           72.5          45.91          -4.39          12.55          111.5           24.9          139.0          20.46          98.53
    0.7475              -22.22          16.41          72.49           45.9         -4.394          12.55          111.4          24.91          138.9          20.51          98.51
    0.7942              -22.22          16.41          72.49          45.89         -4.399          12.54          111.3          24.93          138.9          20.56          98.49
    0.8409              -22.22           16.4          72.49          45.88         -4.404          12.53          111.2          24.94          138.9          20.61          98.48
    0.8876              -22.22          16.38          72.48          45.88          -4.41          12.53          111.1          24.96          138.9          20.67          98.46
    0.9344              -22.22          16.37          72.48          45.87         -4.417          12.52          111.0          24.98          138.8          20.73          98.44
    0.9811              -22.22          16.36          72.47          45.86         -4.424          12.52          110.8           25.0          138.8           20.8          98.41
     1.028              -22.22          16.34          72.47          45.85         -4.432          12.51          110.7          25.02          138.8          20.88          98.39
     1.075              -22.22          16.33          72.46          45.83          -4.44           12.5          110.5          25.04          138.7          20.97          98.36
     1.121              -22.22          16.31          72.45          45.82          -4.45          12.49          110.4          25.07          138.7          21.06          98.33
     1.168              -22.22          16.29          72.45           45.8         -4.461          12.48          110.2           25.1          138.6          21.17           98.3
     1.215              -22.22          16.27          72.44          45.79         -4.473          12.47          109.9          25.14          138.6          21.29          98.26
     1.261              -22.22          16.24          72.43          45.77         -4.486          12.45          109.7          25.17          138.5          21.42          98.21
     1.308              -22.22          16.21          72.42          45.74         -4.502          12.44          109.4          25.22          138.5          21.58          98.16
     1.355              -22.22          16.18          72.41          45.72         -4.519          12.42          109.1          25.27          138.4          21.75          98.11
     1.402              -22.22          16.14          72.39          45.69         -4.539           12.4          108.7          25.32          138.3          21.95          98.04
     1.448              -22.22           16.1          72.38          45.66         -4.562          12.37          108.3          25.39          138.2          22.17          97.97
